<svg width="66" height="66" fill="none" xmlns="http://www.w3.org/2000/svg"><path d="M.384 16c0-8.837 7.163-16 16-16H49.77c8.836 0 16 7.163 16 16v33.387c0 8.837-7.164 16-16 16H16.384c-8.837 0-16-7.163-16-16V16Z" fill="#FDBF00"/><path d="M19.618 40.667c0 1.466.656 2.783 1.683 3.7V46.5c0 1.383 1.127 2.5 2.523 2.5a2.509 2.509 0 0 0 2.524-2.5v-.833h13.459v.833c0 1.367 1.127 2.5 2.523 2.5 1.38 0 2.524-1.117 2.524-2.5v-2.133c1.026-.917 1.682-2.233 1.682-3.7V24c0-5.833-6.023-6.666-13.459-6.666S19.618 18.166 19.618 24v16.667Zm5.888 1.666a2.509 2.509 0 0 1-2.523-2.5c0-1.383 1.127-2.5 2.523-2.5a2.509 2.509 0 0 1 2.524 2.5c0 1.384-1.127 2.5-2.524 2.5Zm15.142 0a2.509 2.509 0 0 1-2.524-2.5c0-1.383 1.127-2.5 2.524-2.5a2.509 2.509 0 0 1 2.523 2.5c0 1.384-1.127 2.5-2.523 2.5Zm2.523-10H22.983V24H43.17v8.334Z" fill="#fff"/></svg>