<svg width="66" height="66" fill="none" xmlns="http://www.w3.org/2000/svg"><path d="M.613 16c0-8.837 7.163-16 16-16H50c8.836 0 16 7.163 16 16v33.387c0 8.837-7.164 16-16 16H16.613c-8.837 0-16-7.163-16-16V16Z" fill="#79CA00"/><path d="M43.75 21.054H22.862c-1.44 0-2.61 1.16-2.61 2.586v18.106c0 1.427 1.17 2.587 2.61 2.587H43.75c1.44 0 2.61-1.16 2.61-2.587V23.64c0-1.426-1.17-2.586-2.61-2.586Zm.001 7.76c-.001 0-.001 0 0 0h-.607l-3.482-5.174h4.088l.001 5.173Zm-5.876 7.76-7.18 3.879v-7.76l7.18 3.88Zm-1.258-7.76-3.482-5.174h3.389l3.482 5.173h-3.39Zm-3.139 0H30.09l-3.481-5.174h3.389l3.481 5.173ZM22.862 23.64h.607l3.482 5.173h-4.089V23.64Z" fill="#fff"/></svg>