<svg width="17" height="18" fill="none" xmlns="http://www.w3.org/2000/svg"><path d="m16.106 6.345-4.99-.784L8.886.67A.653.653 0 0 0 8.6.361c-.31-.166-.688-.027-.843.308l-2.23 4.89-4.99.785a.612.612 0 0 0-.36.197.712.712 0 0 0-.178.484c.002.18.07.353.19.48l3.61 3.806-.853 5.374a.73.73 0 0 0 .037.372c.044.117.118.219.213.294a.588.588 0 0 0 .662.051l4.463-2.538 4.463 2.537c.122.07.263.094.399.069.342-.064.572-.415.513-.785l-.853-5.374 3.61-3.807a.7.7 0 0 0 .182-.389c.053-.372-.186-.716-.53-.771Z" fill="#FDBF00"/></svg>