<svg width="17" height="18" fill="none" xmlns="http://www.w3.org/2000/svg"><path d="m16.137 6.345-5-.784L8.904.67a.654.654 0 0 0-.285-.309c-.312-.166-.69-.027-.845.308L5.538 5.56.54 6.346a.614.614 0 0 0-.36.197.71.71 0 0 0-.179.484c.002.18.07.353.19.48l3.617 3.806-.854 5.374a.73.73 0 0 0 .037.372c.044.117.118.219.213.294a.59.59 0 0 0 .663.051l4.472-2.538 4.471 2.537c.122.07.264.094.4.069.343-.064.573-.415.514-.785l-.855-5.374 3.617-3.807a.7.7 0 0 0 .183-.389c.054-.372-.187-.716-.531-.771Z" fill="#FDBF00"/></svg>